<mxfile host="app.diagrams.net" agent="Mozilla/5.0 (Macintosh; Intel Mac OS X 10_15_7) AppleWebKit/537.36 (KHTML, like Gecko) Chrome/137.0.0.0 Safari/537.36" version="27.1.6">
  <diagram name="第 1 页" id="KYk99M-OGQaK7nRmhiIk">
    <mxGraphModel dx="976" dy="629" grid="1" gridSize="10" guides="1" tooltips="1" connect="1" arrows="1" fold="1" page="1" pageScale="1" pageWidth="827" pageHeight="1169" math="0" shadow="0">
      <root>
        <mxCell id="0" />
        <mxCell id="1" parent="0" />
        <mxCell id="6ec7dsMl37MXK51LwoVR-2" style="rounded=0;orthogonalLoop=1;jettySize=auto;html=1;exitX=0;exitY=0;exitDx=70;exitDy=25;exitPerimeter=0;entryX=0;entryY=0.5;entryDx=0;entryDy=0;" edge="1" parent="1" source="6ec7dsMl37MXK51LwoVR-5" target="6ec7dsMl37MXK51LwoVR-11">
          <mxGeometry relative="1" as="geometry" />
        </mxCell>
        <mxCell id="6ec7dsMl37MXK51LwoVR-4" style="edgeStyle=orthogonalEdgeStyle;rounded=0;orthogonalLoop=1;jettySize=auto;html=1;entryX=0.5;entryY=0;entryDx=0;entryDy=0;" edge="1" parent="1" source="6ec7dsMl37MXK51LwoVR-5" target="6ec7dsMl37MXK51LwoVR-15">
          <mxGeometry relative="1" as="geometry" />
        </mxCell>
        <mxCell id="6ec7dsMl37MXK51LwoVR-5" value="gin" style="shape=cube;whiteSpace=wrap;html=1;boundedLbl=1;backgroundOutline=1;darkOpacity=0.05;darkOpacity2=0.1;size=10;fillColor=#d5e8d4;strokeColor=#82B366;gradientColor=#97d077;" vertex="1" parent="1">
          <mxGeometry x="495" y="280" width="70" height="40" as="geometry" />
        </mxCell>
        <mxCell id="6ec7dsMl37MXK51LwoVR-6" style="rounded=0;orthogonalLoop=1;jettySize=auto;html=1;exitX=0.5;exitY=1;exitDx=0;exitDy=0;entryX=0;entryY=0;entryDx=30;entryDy=0;entryPerimeter=0;" edge="1" parent="1" source="6ec7dsMl37MXK51LwoVR-7" target="6ec7dsMl37MXK51LwoVR-5">
          <mxGeometry relative="1" as="geometry" />
        </mxCell>
        <mxCell id="6ec7dsMl37MXK51LwoVR-7" value="" style="shape=actor;whiteSpace=wrap;html=1;" vertex="1" parent="1">
          <mxGeometry x="505" y="140" width="40" height="60" as="geometry" />
        </mxCell>
        <mxCell id="6ec7dsMl37MXK51LwoVR-8" value="/listAsyncJpbs&lt;div&gt;taskIds=[...]&lt;/div&gt;" style="shape=note;whiteSpace=wrap;html=1;backgroundOutline=1;darkOpacity=0.05;size=8;" vertex="1" parent="1">
          <mxGeometry x="454.95000000000005" y="220" width="140.09" height="30" as="geometry" />
        </mxCell>
        <mxCell id="6ec7dsMl37MXK51LwoVR-11" value="1. 查询 MySQL" style="rounded=0;whiteSpace=wrap;html=1;" vertex="1" parent="1">
          <mxGeometry x="640" y="290" width="120" height="30" as="geometry" />
        </mxCell>
        <mxCell id="6ec7dsMl37MXK51LwoVR-14" style="edgeStyle=orthogonalEdgeStyle;rounded=0;orthogonalLoop=1;jettySize=auto;html=1;exitX=0;exitY=0.5;exitDx=0;exitDy=0;entryX=0;entryY=0.75;entryDx=0;entryDy=0;dashed=1;" edge="1" parent="1" source="6ec7dsMl37MXK51LwoVR-15" target="6ec7dsMl37MXK51LwoVR-7">
          <mxGeometry relative="1" as="geometry">
            <Array as="points">
              <mxPoint x="420" y="385" />
              <mxPoint x="420" y="185" />
            </Array>
          </mxGeometry>
        </mxCell>
        <mxCell id="6ec7dsMl37MXK51LwoVR-15" value="2. 返回&amp;nbsp;&lt;font&gt;&lt;b style=&quot;color: light-dark(rgb(0, 102, 51), rgb(105, 193, 149));&quot;&gt;tasks&lt;/b&gt;&lt;font style=&quot;color: rgb(0, 0, 0);&quot;&gt; 切片&lt;/font&gt;&lt;/font&gt;" style="rounded=0;whiteSpace=wrap;html=1;" vertex="1" parent="1">
          <mxGeometry x="470" y="370" width="120" height="30" as="geometry" />
        </mxCell>
        <mxCell id="6ec7dsMl37MXK51LwoVR-21" style="edgeStyle=orthogonalEdgeStyle;rounded=0;orthogonalLoop=1;jettySize=auto;html=1;exitX=0;exitY=0.5;exitDx=0;exitDy=0;exitPerimeter=0;entryX=1;entryY=0.5;entryDx=0;entryDy=0;" edge="1" parent="1">
          <mxGeometry relative="1" as="geometry">
            <mxPoint x="850" y="310" as="sourcePoint" />
            <mxPoint x="760" y="310" as="targetPoint" />
          </mxGeometry>
        </mxCell>
        <mxCell id="6ec7dsMl37MXK51LwoVR-22" value="MySQL" style="shape=cylinder3;whiteSpace=wrap;html=1;boundedLbl=1;backgroundOutline=1;size=8.758620689655174;" vertex="1" parent="1">
          <mxGeometry x="850" y="267" width="60" height="80" as="geometry" />
        </mxCell>
        <mxCell id="6ec7dsMl37MXK51LwoVR-23" style="edgeStyle=orthogonalEdgeStyle;rounded=0;orthogonalLoop=1;jettySize=auto;html=1;exitX=1;exitY=0.5;exitDx=0;exitDy=0;entryX=0;entryY=0.5;entryDx=0;entryDy=0;entryPerimeter=0;" edge="1" parent="1">
          <mxGeometry relative="1" as="geometry">
            <mxPoint x="760" y="303" as="sourcePoint" />
            <mxPoint x="850" y="303" as="targetPoint" />
          </mxGeometry>
        </mxCell>
        <mxCell id="6ec7dsMl37MXK51LwoVR-24" value="taskIds" style="text;html=1;align=center;verticalAlign=middle;resizable=0;points=[];autosize=1;strokeColor=none;fillColor=none;" vertex="1" parent="1">
          <mxGeometry x="775" y="277" width="60" height="30" as="geometry" />
        </mxCell>
        <mxCell id="6ec7dsMl37MXK51LwoVR-25" value="tasks" style="text;html=1;align=center;verticalAlign=middle;resizable=0;points=[];autosize=1;strokeColor=none;fillColor=none;" vertex="1" parent="1">
          <mxGeometry x="780" y="307" width="50" height="30" as="geometry" />
        </mxCell>
      </root>
    </mxGraphModel>
  </diagram>
</mxfile>
